<?xml version="1.0" standalone="no"?>
<!DOCTYPE svg PUBLIC "-//W3C//DTD SVG 20010904//EN"
 "http://www.w3.org/TR/2001/REC-SVG-20010904/DTD/svg10.dtd">
<svg version="1.0" xmlns="http://www.w3.org/2000/svg"
 width="256.000000pt" height="256.000000pt" viewBox="0 0 256.000000 256.000000"
 preserveAspectRatio="xMidYMid meet">
<metadata>
Created by potrace 1.11, written by Peter Selinger 2001-2013
</metadata>
<g transform="translate(0.000000,256.000000) scale(0.100000,-0.100000)"
fill="#000000" stroke="none">
<path d="M1470 2463 c-20 -8 -37 -30 -58 -74 -16 -32 -17 -91 -16 -665 1 -346
3 -629 4 -629 1 0 3 -13 5 -30 5 -50 57 -197 72 -202 7 -3 11 -8 8 -12 -6 -11
69 -99 122 -141 70 -55 192 -104 232 -93 12 3 21 1 21 -6 0 -5 6 -8 13 -6 6 3
44 7 82 9 191 10 338 106 432 281 26 50 60 160 69 223 3 26 8 50 10 54 10 15
5 198 -6 263 -15 87 -49 195 -61 195 -5 0 -9 7 -9 15 0 16 -39 77 -52 83 -5 2
-8 8 -8 13 0 33 -166 156 -241 178 -24 7 -51 16 -59 20 -28 13 -174 3 -249
-18 -41 -11 -78 -18 -82 -15 -5 2 -8 103 -8 223 0 120 -5 229 -10 243 -5 14
-26 42 -47 62 -34 33 -42 36 -93 35 -31 0 -63 -3 -71 -6z m541 -846 c51 -22
115 -97 129 -149 7 -23 15 -50 19 -58 8 -15 6 -242 -2 -270 -38 -134 -119
-214 -229 -227 -53 -6 -127 16 -159 48 -27 27 -61 99 -63 134 -2 17 -5 36 -9
42 -3 5 -6 82 -5 171 1 172 12 217 61 266 25 25 86 52 106 48 7 -2 10 1 6 7
-10 17 103 7 146 -12z"/>
<path d="M965 1956 c-41 -15 -67 -35 -89 -71 -18 -27 -19 -52 -19 -382 0 -194
-2 -353 -6 -353 -3 0 -7 -26 -7 -57 -1 -32 -7 -59 -13 -61 -6 -2 -11 -9 -11
-16 0 -15 -137 -89 -150 -81 -5 3 -10 2 -10 -4 0 -6 -16 -10 -35 -9 -19 1 -35
5 -35 10 0 5 -4 6 -10 3 -15 -9 -86 43 -114 84 -32 46 -56 125 -62 205 -3 33
-6 189 -7 346 -2 202 -6 291 -15 307 -54 98 -221 105 -276 12 -15 -26 -17 -66
-17 -381 0 -322 2 -360 21 -433 21 -84 25 -95 57 -160 38 -77 69 -123 107
-154 10 -9 26 -24 35 -33 8 -10 21 -18 28 -18 7 0 13 -4 13 -9 0 -8 127 -69
165 -78 28 -7 185 -7 215 0 14 3 37 10 53 16 15 6 27 8 27 5 0 -4 6 -1 14 5 8
7 16 8 19 4 6 -10 1 -120 -7 -151 -5 -25 -46 -93 -46 -79 0 4 -9 3 -21 -3 -11
-6 -30 -14 -42 -17 -31 -7 -227 -10 -227 -3 0 4 -12 7 -27 7 -57 2 -89 10
-147 36 -72 33 -122 34 -166 5 -54 -37 -72 -69 -72 -128 1 -56 31 -115 64
-126 10 -3 18 -10 18 -15 0 -5 3 -8 8 -7 4 0 34 -11 66 -26 33 -15 73 -30 90
-33 17 -3 36 -9 41 -14 11 -8 353 -4 395 5 14 3 39 9 55 12 17 4 41 11 55 17
14 5 30 11 37 13 33 6 148 106 136 118 -3 3 -1 6 5 6 23 0 83 151 98 250 4 25
8 333 9 685 1 640 1 640 -21 680 -34 63 -115 95 -179 71z"/>
</g>
</svg>
