<?xml version="1.0" standalone="no"?>
<!DOCTYPE svg PUBLIC "-//W3C//DTD SVG 20010904//EN"
 "http://www.w3.org/TR/2001/REC-SVG-20010904/DTD/svg10.dtd">
<svg version="1.0" xmlns="http://www.w3.org/2000/svg"
 width="700.000000pt" height="700.000000pt" viewBox="0 0 700.000000 700.000000"
 preserveAspectRatio="xMidYMid meet">
<metadata>
Created by potrace 1.11, written by Peter Selinger 2001-2013
</metadata>
<g transform="translate(0.000000,700.000000) scale(0.100000,-0.100000)"
fill="#000000" stroke="none">
<path d="M3298 6996 c-1 -2 -41 -6 -88 -9 -97 -7 -222 -22 -295 -37 -27 -5
-61 -12 -75 -14 -291 -51 -643 -172 -935 -321 -215 -110 -509 -307 -665 -444
l-55 -49 0 -504 c1 -276 4 -512 8 -523 3 -11 9 -40 12 -64 12 -84 57 -217 107
-320 136 -277 372 -490 670 -605 35 -13 77 -28 93 -32 17 -4 32 -8 35 -9 108
-30 153 -32 568 -34 l342 -1 0 -265 0 -266 -367 2 c-203 1 -395 5 -428 9 -136
18 -165 23 -270 51 -162 42 -328 113 -467 199 -431 268 -727 708 -808 1200
-19 116 -20 121 -25 345 -2 116 -4 214 -5 220 0 5 -21 -22 -47 -60 -266 -396
-456 -856 -538 -1300 -10 -49 -18 -97 -20 -105 -2 -9 -6 -43 -10 -75 -4 -33
-9 -69 -11 -80 -19 -99 -25 -565 -10 -715 7 -76 24 -205 31 -250 6 -32 24
-129 29 -155 22 -111 101 -393 126 -450 4 -11 21 -54 36 -95 15 -41 44 -113
65 -158 22 -46 39 -86 39 -88 0 -13 153 -285 213 -379 418 -658 1078 -1177
1814 -1426 103 -35 338 -100 405 -113 13 -2 50 -9 83 -15 33 -6 71 -13 85 -16
14 -3 52 -8 85 -11 33 -3 63 -8 66 -9 3 -2 50 -7 105 -12 182 -14 602 -8 725
12 13 2 58 9 99 15 41 6 87 14 103 16 175 28 540 133 692 200 22 10 42 18 45
19 34 10 256 118 334 163 34 19 77 43 96 54 60 35 222 143 307 207 88 66 125
104 50 53 -147 -102 -424 -206 -602 -227 -27 -3 -60 -8 -73 -11 -30 -6 -256
-6 -312 1 -304 35 -564 137 -791 311 -41 31 -91 72 -111 92 -37 36 -38 36 -39
12 0 -14 -1 -109 -2 -212 l0 -188 -232 0 -231 0 0 2970 0 2970 231 0 232 0 -1
-1641 c-1 -902 1 -1642 3 -1644 2 -3 38 25 80 61 190 164 450 294 676 340 57
11 73 14 104 19 63 11 125 15 231 15 312 2 603 -87 870 -265 108 -73 126 -87
233 -192 203 -199 345 -454 412 -738 34 -142 38 -182 39 -345 1 -220 -20 -352
-90 -550 -1 -3 -5 -16 -9 -30 -26 -82 -170 -331 -232 -399 -12 -14 -21 -27
-18 -29 4 -4 52 47 152 164 300 351 532 772 672 1219 58 187 111 422 126 565
4 30 8 61 11 68 25 78 25 644 -1 822 -3 19 -7 56 -10 81 -3 25 -7 54 -9 65 -2
10 -11 60 -21 109 -45 244 -121 489 -228 735 -83 192 -166 343 -293 535 -247
372 -511 643 -919 941 -44 32 -100 67 -245 153 -292 174 -676 322 -1028 396
-98 20 -246 43 -392 60 -55 7 -525 16 -532 11z"/>
<path d="M4721 3167 c-420 -38 -795 -328 -936 -726 -52 -146 -60 -200 -60
-396 1 -164 19 -258 76 -398 27 -68 110 -219 133 -243 6 -6 31 -36 55 -65 229
-277 623 -426 989 -373 149 21 242 51 372 120 179 95 323 234 437 419 44 71
115 253 127 326 3 19 8 45 11 59 4 14 8 84 9 155 14 663 -548 1183 -1213 1122z"/>
</g>
</svg>
